<?xml version="1.0" encoding="utf-8"?>
<!-- Generator: Adobe Illustrator 27.5.0, SVG Export Plug-In . SVG Version: 6.00 Build 0)  -->
<svg version="1.1" id="Capa_1" xmlns="http://www.w3.org/2000/svg" xmlns:xlink="http://www.w3.org/1999/xlink" x="0px" y="0px"
	 viewBox="0 0 420 419" style="enable-background:new 0 0 420 419;" xml:space="preserve">
<g>
	<rect style="fill:#FEECD4;" width="420" height="419"/>
	<g>
		<g>
			<path style="fill:#F8B894;" d="M49.311,193.336c0,0,0,11.449,0,20.918c0,9.469,14.335,14.313,19.346,14.313
				c5.012,0,26.084,1.563,26.084,1.563l-0.686-37.233l-14.283-2.29L49.311,193.336z"/>
			<path style="fill:#F8B894;" d="M94.07,197.948l-13.213-6.371l3.074-8.046c0,0,1.735,3.703,9.053,2.474
				c10.303-1.73,36.098-6.075,40.76-6.771c6.934-1.035,9.7,6.704,0.78,8.204c-5.206,0.873-32.127,6.105-35.928,6.823
				C94.795,194.977,94.07,197.948,94.07,197.948z"/>
			<path style="fill:#F8B894;" d="M98.477,220.375l-4.588,0.91l-7.188-14.888l12.686,0.434c0,0-2.339,1.735,5.09,2.183
				c10.468,0.631,32.585,2.857,37.294,3.228c7.003,0.549,7.444,8.654-1.617,8.107c-5.288-0.32-34.355-1.266-38.236-1.424
				C98.031,218.77,98.477,220.375,98.477,220.375z"/>
			<path style="fill:#F8B894;" d="M94.74,230.129l-10.34-7.771l14.076-1.982c0,0,0.002,1.125,6.377,2.045
				c8.978,1.295,19.221,2.652,23.252,3.307c5.999,0.973,5.689,7.67-2.084,6.549C121.485,231.619,94.74,230.129,94.74,230.129z"/>
			<path style="fill:#F8B894;" d="M97.644,209.493l-9.721-7.229l7.687-6.621c0,0-2.122,2.135,5.751,1.521
				c11.089-0.865,36.868-2.598,41.872-2.89c7.448-0.431,8.865,8.187-0.734,8.935c-5.6,0.437-36.818,2.61-40.918,3.018
				C97.483,206.638,97.644,209.493,97.644,209.493z"/>
			<path style="fill:#F8B894;" d="M71.683,206.395l-3.813-2.242l-0.158-0.092l-18.401-10.823c0-3.86,3.367-10.035,10.409-13.02
				c8.817-3.737,20.803-9.661,29.491-15.45c4.843-3.231,7.289-1.835,8.111,0.733c0.429,1.347,0.412,3.02,0.054,4.513
				c-2.123,8.839-13.624,11.766-13.624,11.766S86.469,200.243,71.683,206.395z"/>
			<path style="fill:#E2A988;" d="M66.649,204.662c0.063-0.031,0.456-0.232,1.063-0.601c3.595-2.173,14.884-10.171,12.94-24.001
				c11.902-3.479,15.854-10.893,16.67-14.558c0.429,1.347,0.412,3.02,0.054,4.513c-2.123,8.839-13.624,11.766-13.624,11.766
				s0.625,15.138-15.882,22.372C67.473,204.332,67.066,204.501,66.649,204.662z"/>
		</g>
		<rect x="9.779" y="191.256" style="fill:#F8B894;" width="42.838" height="26.832"/>
		<polygon style="fill:#8A1002;" points="0,186.412 0,222.695 36.326,220.172 36.326,188.544 		"/>
	</g>
	<g>
		<g>
			<path style="fill:#F8B894;" d="M365.85,221.063c0,0,0-11.449,0-20.917c0-9.469-14.336-14.312-19.348-14.312
				c-5.011,0-26.083-1.563-26.083-1.563l0.687,37.234l14.283,2.289L365.85,221.063z"/>
			<path style="fill:#F8B894;" d="M321.088,216.451l13.215,6.371l-3.075,8.045c0,0-1.735-3.703-9.054-2.473
				c-10.302,1.729-36.098,6.074-40.759,6.77c-6.934,1.033-9.7-6.703-0.78-8.203c5.207-0.873,32.127-6.105,35.928-6.822
				S321.088,216.451,321.088,216.451z"/>
			<path style="fill:#F8B894;" d="M316.682,194.021l4.588-0.908l7.19,14.887l-12.687-0.434c0,0,2.339-1.736-5.091-2.184
				c-10.467-0.631-32.584-2.857-37.293-3.227c-7.004-0.551-7.443-8.653,1.617-8.107c5.287,0.32,34.355,1.265,38.236,1.422
				C317.127,195.629,316.682,194.021,316.682,194.021z"/>
			<path style="fill:#F8B894;" d="M320.419,184.27l10.339,7.77l-14.076,1.982c0,0-0.001-1.122-6.376-2.042
				c-8.978-1.296-19.221-2.653-23.253-3.306c-5.998-0.974-5.688-7.671,2.085-6.549C293.674,182.779,320.419,184.27,320.419,184.27z"
				/>
			<path style="fill:#F8B894;" d="M317.516,204.905l9.721,7.23l-7.686,6.62c0,0,2.122-2.137-5.751-1.521
				c-11.089,0.865-36.867,2.598-41.873,2.889c-7.447,0.434-8.864-8.184,0.735-8.934c5.6-0.438,36.819-2.61,40.917-3.02
				C317.676,207.76,317.516,204.905,317.516,204.905z"/>
			<path style="fill:#F8B894;" d="M343.477,208.003l3.813,2.242l0.158,0.094l18.402,10.821c0,3.861-3.368,10.033-10.41,13.02
				c-8.817,3.736-20.803,9.66-29.491,15.447c-4.843,3.234-7.289,1.836-8.111-0.73c-0.429-1.348-0.412-3.02-0.054-4.514
				c2.123-8.84,13.624-11.768,13.624-11.768S328.69,214.155,343.477,208.003z"/>
			<path style="fill:#E2A988;" d="M348.51,209.736c-0.064,0.032-0.455,0.231-1.063,0.603c-3.595,2.171-14.883,10.169-12.939,23.999
				c-11.903,3.48-15.855,10.893-16.671,14.559c-0.429-1.348-0.412-3.02-0.054-4.514c2.123-8.84,13.624-11.768,13.624-11.768
				s-0.625-15.137,15.882-22.371C347.685,210.065,348.093,209.898,348.51,209.736z"/>
		</g>
		<rect x="362.542" y="196.311" style="fill:#F8B894;" width="42.838" height="26.833"/>
		<polygon style="fill:#E52A12;" points="420,191.367 378.833,194.225 378.833,225.855 420,228.271 		"/>
	</g>
	<g>
		<g>
			<path style="fill:#F8B894;" d="M221.439,43.327c0,0-11.449,0-20.918,0c-9.469,0-14.313,14.335-14.313,19.347
				s-1.563,26.083-1.563,26.083l37.233-0.687l2.291-14.282L221.439,43.327z"/>
			<path style="fill:#F8B894;" d="M216.828,88.088l6.371-13.214l8.044,3.075c0,0-3.702,1.734-2.474,9.053
				c1.729,10.302,6.074,36.098,6.77,40.759c1.035,6.934-6.703,9.7-8.201,0.78c-0.874-5.206-6.105-32.127-6.824-35.928
				C219.798,88.813,216.828,88.088,216.828,88.088z"/>
			<path style="fill:#F8B894;" d="M194.398,92.494l-0.908-4.588l14.887-7.19l-0.434,12.686c0,0-1.736-2.338-2.184,5.091
				c-0.632,10.466-2.858,32.584-3.229,37.293c-0.549,7.004-8.652,7.444-8.106-1.617c0.319-5.288,1.267-34.355,1.423-38.237
				C196.004,92.049,194.398,92.494,194.398,92.494z"/>
			<path style="fill:#F8B894;" d="M184.645,88.757l7.771-10.34l1.982,14.077c0,0-1.124,0.001-2.044,6.377
				c-1.297,8.977-2.653,19.22-3.307,23.252c-0.974,5.998-7.671,5.688-6.548-2.085C183.155,115.502,184.645,88.757,184.645,88.757z"
				/>
			<path style="fill:#F8B894;" d="M205.281,91.66l7.229-9.72l6.62,7.686c0,0-2.137-2.122-1.521,5.751
				c0.866,11.088,2.599,36.868,2.89,41.873c0.433,7.447-8.184,8.865-8.934-0.734c-0.438-5.601-2.609-36.819-3.018-40.918
				C208.137,91.5,205.281,91.66,205.281,91.66z"/>
			<path style="fill:#F8B894;" d="M208.379,65.7l2.241-3.814l0.094-0.157l10.822-18.403c3.86,0,10.034,3.368,13.02,10.41
				c3.736,8.817,9.661,20.802,15.448,29.491c3.232,4.843,1.835,7.29-0.732,8.111c-1.348,0.43-3.02,0.413-4.513,0.054
				c-8.84-2.124-11.767-13.624-11.767-13.624S214.531,80.485,208.379,65.7z"/>
			<path style="fill:#E2A988;" d="M210.111,60.666c0.032,0.064,0.232,0.456,0.603,1.063c2.172,3.594,10.17,14.883,24,12.94
				c3.48,11.902,10.892,15.855,14.558,16.67c-1.348,0.43-3.02,0.413-4.513,0.054c-8.84-2.124-11.767-13.624-11.767-13.624
				s-15.137,0.625-22.372-15.883C210.442,61.49,210.273,61.083,210.111,60.666z"/>
		</g>
		<rect x="196.688" y="3.796" style="fill:#F8B894;" width="26.832" height="42.837"/>
		<polygon style="fill:#EA5B0C;" points="192.495,0 194.602,30.343 226.23,30.343 228.012,0 		"/>
	</g>
	<g>
		<g>
			<path style="fill:#F8B894;" d="M200.099,355.762c0,0,11.449,0,20.917,0c9.469,0,14.312-14.334,14.312-19.346
				c0-5.012,1.563-26.084,1.563-26.084l-37.233,0.688l-2.29,14.281L200.099,355.762z"/>
			<path style="fill:#F8B894;" d="M204.709,311.002l-6.37,13.213l-8.046-3.074c0,0,3.702-1.734,2.474-9.053
				c-1.73-10.303-6.074-36.098-6.77-40.76c-1.034-6.934,6.703-9.699,8.202-0.779c0.873,5.205,6.106,32.127,6.822,35.928
				C201.74,310.277,204.709,311.002,204.709,311.002z"/>
			<path style="fill:#F8B894;" d="M227.138,306.596l0.909,4.588l-14.887,7.189l0.434-12.685c0,0,1.735,2.338,2.184-5.092
				c0.631-10.467,2.857-32.584,3.227-37.293c0.551-7.004,8.653-7.443,8.107,1.617c-0.32,5.287-1.265,34.355-1.422,38.236
				C225.532,307.041,227.138,306.596,227.138,306.596z"/>
			<path style="fill:#F8B894;" d="M236.891,310.332l-7.77,10.34l-1.982-14.076c0,0,1.125-0.002,2.044-6.377
				c1.297-8.977,2.653-19.219,3.307-23.252c0.973-5.998,7.671-5.688,6.549,2.086C238.381,283.588,236.891,310.332,236.891,310.332z"
				/>
			<path style="fill:#F8B894;" d="M216.255,307.43l-7.229,9.721l-6.621-7.688c0,0,2.137,2.123,1.521-5.75
				c-0.865-11.088-2.599-36.869-2.89-41.873c-0.432-7.447,8.186-8.865,8.935,0.734c0.438,5.602,2.61,36.818,3.019,40.918
				C213.4,307.59,216.255,307.43,216.255,307.43z"/>
			<path style="fill:#F8B894;" d="M213.158,333.391l-2.242,3.813l-0.094,0.158l-10.821,18.402c-3.861,0-10.034-3.369-13.02-10.41
				c-3.737-8.818-9.661-20.803-15.448-29.49c-3.233-4.844-1.836-7.291,0.731-8.111c1.347-0.43,3.02-0.414,4.514-0.055
				c8.838,2.123,11.766,13.623,11.766,13.623S207.006,318.605,213.158,333.391z"/>
			<path style="fill:#E2A988;" d="M211.425,338.424c-0.032-0.064-0.233-0.457-0.603-1.063c-2.172-3.596-10.169-14.885-24-12.941
				c-3.48-11.902-10.892-15.853-14.558-16.668c1.347-0.43,3.02-0.414,4.514-0.055c8.838,2.123,11.766,13.623,11.766,13.623
				s15.138-0.625,22.372,15.883C211.095,337.6,211.263,338.008,211.425,338.424z"/>
		</g>
		<rect x="198.017" y="352.457" style="fill:#F8B894;" width="26.833" height="42.836"/>
		<polygon style="fill:#BD0E0D;" points="230.425,419 226.935,368.746 195.306,368.746 192.355,419 		"/>
	</g>
	<g>
		<g>
			<path style="fill:#F8B894;" d="M107.453,88.666c0,0-8.096,8.095-14.79,14.79c-6.696,6.696,0.016,20.257,3.56,23.801
				c3.543,3.544,17.338,19.549,17.338,19.549l25.843-26.813l-8.48-11.719L107.453,88.666z"/>
			<path style="fill:#F8B894;" d="M135.844,123.577l-4.84-13.849l7.863-3.515c0,0-1.391,3.845,4.652,8.15
				c8.508,6.061,29.821,21.229,33.609,24.034c5.635,4.171,2.119,11.599-5.248,6.352c-4.3-3.064-27.035-18.4-30.23-20.581
				C138.457,121.988,135.844,123.577,135.844,123.577z"/>
			<path style="fill:#F8B894;" d="M123.1,142.552l-3.887-2.601l5.444-15.611l8.663,9.278c0,0-2.88-0.427,2.056,5.143
				c6.955,7.848,21.02,25.062,24.088,28.653c4.563,5.34-0.856,11.383-6.876,4.588c-3.512-3.965-23.398-25.186-26.031-28.043
				C123.921,141.101,123.1,142.552,123.1,142.552z"/>
			<path style="fill:#F8B894;" d="M113.561,146.806L111.744,134l11.355,8.552c0,0-0.793,0.796,3.063,5.954
				c5.432,7.264,11.716,15.467,14.104,18.78c3.553,4.93-1.401,9.446-6.105,3.156C131.418,166.771,113.561,146.806,113.561,146.806z"
				/>
			<path style="fill:#F8B894;" d="M130.205,134.267l-1.762-11.984l10.117,0.753c0,0-3.011,0.01,2.991,5.142
				c8.452,7.23,27.906,24.233,31.651,27.565c5.572,4.961,0.48,12.058-6.837,5.798c-4.268-3.65-27.88-24.189-31.067-26.798
				C132.111,132.135,130.205,134.267,130.205,134.267z"/>
			<path style="fill:#F8B894;" d="M114.039,113.72l-1.111-4.282l-0.046-0.177l-5.359-20.665c2.729-2.729,9.477-4.714,16.566-1.846
				c8.878,3.593,21.541,7.879,31.778,9.929c5.71,1.14,6.452,3.857,5.217,6.254c-0.648,1.256-1.844,2.427-3.152,3.229
				c-7.752,4.748-17.954-1.313-17.954-1.313S128.845,119.824,114.039,113.72z"/>
			<path style="fill:#E2A988;" d="M111.705,108.935c0.067,0.023,0.486,0.159,1.177,0.327c4.078,1.004,17.716,3.332,26.121-7.821
				c10.876,5.956,18.913,3.509,22.081,1.493c-0.648,1.256-1.844,2.427-3.152,3.229c-7.752,4.748-17.954-1.313-17.954-1.313
				s-10.262,11.146-27.05,4.589C112.521,109.284,112.115,109.116,111.705,108.935z"/>
		</g>
		
			<rect x="73.215" y="62.455" transform="matrix(0.7071 -0.7071 0.7071 0.7071 -33.934 85.82)" style="fill:#F8B894;" width="26.833" height="42.837"/>
		<polygon style="fill:#4E0700;" points="27.646,0 0,0 0,36.934 79.296,98.461 101.661,76.096 		"/>
	</g>
	<g>
		<g>
			<path style="fill:#F8B894;" d="M297.195,324.027c0,0,8.096-8.096,14.79-14.791c6.695-6.695-0.017-20.256-3.561-23.801
				c-3.543-3.543-17.338-19.549-17.338-19.549l-25.843,26.813l8.48,11.721L297.195,324.027z"/>
			<path style="fill:#F8B894;" d="M268.805,289.115l4.838,13.85l-7.862,3.516c0,0,1.392-3.846-4.653-8.15
				c-8.507-6.063-29.819-21.23-33.608-24.037c-5.635-4.17-2.119-11.598,5.248-6.35c4.299,3.064,27.035,18.398,30.23,20.58
				C266.191,290.703,268.805,289.115,268.805,289.115z"/>
			<path style="fill:#F8B894;" d="M281.549,270.139l3.887,2.603l-5.445,15.609l-8.662-9.277c0,0,2.881,0.428-2.057-5.143
				c-6.955-7.848-21.02-25.061-24.088-28.652c-4.563-5.342,0.855-11.383,6.877-4.588c3.512,3.963,23.399,25.186,26.031,28.041
				C280.727,271.592,281.549,270.139,281.549,270.139z"/>
			<path style="fill:#F8B894;" d="M291.087,265.887l1.817,12.805l-11.355-8.553c0,0,0.792-0.793-3.064-5.951
				c-5.432-7.266-11.715-15.469-14.104-18.779c-3.554-4.932,1.4-9.447,6.105-3.158C273.229,245.92,291.087,265.887,291.087,265.887z
				"/>
			<path style="fill:#F8B894;" d="M274.443,278.426l1.76,11.986l-10.115-0.756c0,0,3.011-0.01-2.991-5.141
				c-8.452-7.23-27.907-24.232-31.651-27.566c-5.572-4.961-0.48-12.055,6.837-5.797c4.27,3.648,27.88,24.189,31.067,26.799
				C272.537,280.557,274.443,278.426,274.443,278.426z"/>
			<path style="fill:#F8B894;" d="M290.609,298.973l1.111,4.281l0.045,0.178l5.36,20.664c-2.732,2.73-9.477,4.715-16.567,1.846
				c-8.878-3.592-21.54-7.879-31.777-9.93c-5.711-1.139-6.451-3.855-5.218-6.254c0.649-1.254,1.845-2.426,3.152-3.229
				c7.753-4.748,17.954,1.315,17.954,1.315S275.804,292.867,290.609,298.973z"/>
			<path style="fill:#E2A988;" d="M292.942,303.758c-0.068-0.023-0.485-0.158-1.177-0.326c-4.077-1.006-17.715-3.334-26.12,7.82
				c-10.877-5.955-18.913-3.51-22.082-1.494c0.649-1.254,1.845-2.426,3.152-3.229c7.753-4.748,17.954,1.315,17.954,1.315
				s10.262-11.147,27.051-4.59C292.127,303.408,292.533,303.576,292.942,303.758z"/>
		</g>
		
			<rect x="304.601" y="307.4" transform="matrix(0.7071 -0.7071 0.7071 0.7071 -139.3652 321.1929)" style="fill:#F8B894;" width="26.833" height="42.837"/>
		<polygon style="fill:#E30613;" points="420,419 420,376.787 325.353,314.23 302.986,336.596 395.738,419 		"/>
	</g>
	<g>
		<g>
			<path style="fill:#F8B894;" d="M328.295,97.789c0,0-8.096-8.096-14.791-14.791c-6.695-6.695-20.258,0.016-23.801,3.56
				c-3.544,3.544-19.549,17.339-19.549,17.339l26.814,25.842l11.719-8.479L328.295,97.789z"/>
			<path style="fill:#F8B894;" d="M293.385,126.179l13.848-4.838l3.514,7.862c0,0-3.844-1.391-8.15,4.652
				c-6.063,8.507-21.229,29.82-24.034,33.608c-4.171,5.634-11.599,2.119-6.351-5.248c3.063-4.3,18.4-27.035,20.58-30.23
				C294.972,128.792,293.385,126.179,293.385,126.179z"/>
			<path style="fill:#F8B894;" d="M274.408,113.435l2.602-3.885l15.61,5.442l-9.276,8.664c0,0,0.425-2.882-5.145,2.055
				c-7.848,6.954-25.061,21.02-28.652,24.088c-5.342,4.564-11.382-0.854-4.59-6.875c3.966-3.514,25.19-23.398,28.045-26.033
				C275.858,114.256,274.408,113.435,274.408,113.435z"/>
			<path style="fill:#F8B894;" d="M270.154,103.896l12.807-1.817l-8.553,11.355c0,0-0.796-0.794-5.953,3.064
				c-7.267,5.431-15.468,11.713-18.78,14.103c-4.931,3.553-9.446-1.402-3.155-6.105
				C250.189,121.754,270.154,103.896,270.154,103.896z"/>
			<path style="fill:#F8B894;" d="M282.694,120.541l11.984-1.762l-0.754,10.117c0,0-0.01-3.012-5.143,2.99
				c-7.227,8.454-24.23,27.907-27.565,31.652c-4.959,5.572-12.055,0.481-5.798-6.837c3.651-4.269,24.191-27.88,26.8-31.067
				C284.826,122.446,282.694,120.541,282.694,120.541z"/>
			<path style="fill:#F8B894;" d="M303.241,104.374l4.28-1.112l0.178-0.045l20.665-5.36c2.73,2.729,4.714,9.477,1.846,16.567
				c-3.593,8.877-7.878,21.541-9.93,31.776c-1.14,5.71-3.857,6.453-6.255,5.217c-1.256-0.648-2.426-1.843-3.227-3.152
				c-4.749-7.751,1.313-17.953,1.313-17.953S297.135,119.179,303.241,104.374z"/>
			<path style="fill:#E2A988;" d="M308.025,102.04c-0.023,0.068-0.158,0.487-0.326,1.178c-1.006,4.077-3.333,17.715,7.821,26.12
				c-5.956,10.878-3.511,18.913-1.495,22.081c-1.256-0.648-2.426-1.843-3.227-3.152c-4.749-7.751,1.313-17.953,1.313-17.953
				s-11.146-10.263-4.59-27.051C307.676,102.856,307.846,102.45,308.025,102.04z"/>
		</g>
		
			<rect x="311.668" y="63.55" transform="matrix(0.7071 -0.7071 0.7071 0.7071 43.1312 258.0641)" style="fill:#F8B894;" width="42.837" height="26.832"/>
		<polygon style="fill:#E63812;" points="372.418,0 318.499,69.631 340.865,91.996 420,24.956 420,0 		"/>
	</g>
	<g>
		<g>
			<path style="fill:#F8B894;" d="M92.279,303.625c0,0,8.096,8.094,14.791,14.789c6.696,6.697,20.256-0.016,23.8-3.559
				c3.544-3.545,19.55-17.338,19.55-17.338l-26.814-25.844l-11.72,8.48L92.279,303.625z"/>
			<path style="fill:#F8B894;" d="M127.19,275.234l-13.848,4.838l-3.516-7.863c0,0,3.845,1.393,8.15-4.652
				c6.063-8.506,21.229-29.82,24.035-33.607c4.171-5.635,11.598-2.119,6.351,5.248c-3.063,4.299-18.398,27.035-20.581,30.23
				C125.604,272.621,127.19,275.234,127.19,275.234z"/>
			<path style="fill:#F8B894;" d="M146.166,287.977l-2.602,3.889l-15.611-5.443l9.278-8.664c0,0-0.427,2.881,5.144-2.057
				c7.848-6.955,25.061-21.02,28.651-24.088c5.343-4.563,11.384,0.855,4.59,6.875c-3.965,3.514-25.188,23.4-28.044,26.033
				C144.716,287.156,146.166,287.977,146.166,287.977z"/>
			<path style="fill:#F8B894;" d="M150.42,297.518l-12.807,1.814l8.553-11.355c0,0,0.796,0.795,5.954-3.063
				c7.265-5.432,15.467-11.715,18.779-14.104c4.931-3.553,9.446,1.402,3.157,6.105C170.385,279.658,150.42,297.518,150.42,297.518z"
				/>
			<path style="fill:#F8B894;" d="M137.881,280.873l-11.984,1.762l0.753-10.117c0,0,0.01,3.012,5.143-2.992
				c7.228-8.451,24.231-27.906,27.565-31.65c4.96-5.572,12.056-0.48,5.798,6.838c-3.65,4.268-24.189,27.879-26.799,31.066
				C135.749,278.967,137.881,280.873,137.881,280.873z"/>
			<path style="fill:#F8B894;" d="M117.334,297.039l-4.282,1.111l-0.177,0.045l-20.664,5.361c-2.731-2.73-4.715-9.477-1.846-16.568
				c3.592-8.877,7.878-21.539,9.929-31.777c1.139-5.711,3.857-6.453,6.254-5.217c1.255,0.648,2.427,1.842,3.229,3.152
				c4.747,7.752-1.313,17.953-1.313,17.953S123.438,282.234,117.334,297.039z"/>
			<path style="fill:#E2A988;" d="M112.549,299.373c0.022-0.068,0.158-0.488,0.326-1.178c1.005-4.078,3.333-17.715-7.82-26.119
				c5.955-10.879,3.509-18.914,1.493-22.082c1.255,0.648,2.427,1.842,3.229,3.152c4.747,7.752-1.313,17.953-1.313,17.953
				s11.146,10.264,4.588,27.051C112.898,298.557,112.729,298.963,112.549,299.373z"/>
		</g>
		
			<rect x="66.069" y="311.03" transform="matrix(0.7071 -0.7071 0.7071 0.7071 -203.7985 156.8988)" style="fill:#F8B894;" width="42.837" height="26.833"/>
		<polygon style="fill:#A90F09;" points="18.527,419 102.074,331.781 79.709,309.416 0,371.788 0,419 		"/>
	</g>
	<g>
		<g>
			<g>
				<g>
					<path style="fill:#009FE3;" d="M306.776,197.337c0,0.407,0,0.815-0.019,1.204c-0.037,3.889-0.32,7.703-0.832,11.463
						c-2.477,18.187-10.211,34.726-21.649,48.154c-2.477,2.889-5.107,5.611-7.884,8.186c-11.836,10.963-26.491,19.02-42.77,23.039
						c-7.603,1.873-15.563,2.871-23.75,2.871c-8.206,0-16.168-0.998-23.768-2.871c-17.813-4.408-33.656-13.631-46.02-26.188
						c-2.668-2.723-5.183-5.594-7.507-8.613c-9.853-12.742-16.488-27.982-18.758-44.578c-0.512-3.76-0.795-7.574-0.833-11.463
						c-0.018-0.389-0.018-0.797-0.018-1.204c0-21.225,7.11-40.801,19.099-56.598c2.286-3.02,4.764-5.89,7.392-8.611
						c12.443-12.891,28.533-22.356,46.628-26.819c7.618-1.888,15.58-2.888,23.786-2.888c8.206,0,16.168,1,23.768,2.87
						c18.113,4.481,34.205,13.946,46.646,26.837c2.628,2.722,5.107,5.592,7.394,8.611
						C299.668,156.536,306.776,176.112,306.776,197.337z"/>
					<path style="fill:#83D0F5;" d="M209.873,296.853c-8.418,0-16.8-1.012-24.911-3.008c-18.358-4.547-35.045-14.037-48.259-27.457
						c-2.848-2.908-5.494-5.945-7.875-9.035c-10.546-13.643-17.349-29.807-19.661-46.737c-0.54-3.956-0.833-7.974-0.873-11.95
						c-0.019-0.432-0.021-0.88-0.021-1.329c0-21.559,6.925-42.079,20.026-59.343c2.336-3.085,4.944-6.124,7.75-9.027
						c13.305-13.787,30.212-23.511,48.891-28.119c16.192-4.011,33.595-4.018,49.845-0.018c18.702,4.627,35.614,14.356,48.915,28.137
						c2.805,2.905,5.412,5.942,7.752,9.031c13.098,17.26,20.022,37.78,20.022,59.339c0,0.449-0.001,0.898-0.021,1.329
						c-0.043,3.978-0.334,7.996-0.87,11.946c-2.53,18.57-10.381,36.031-22.701,50.494c-2.56,2.986-5.339,5.871-8.264,8.582
						c-12.599,11.668-28.108,20.023-44.849,24.156C226.652,295.842,218.278,296.853,209.873,296.853z M209.873,107.02
						c-7.661,0-15.276,0.924-22.635,2.748c-16.948,4.18-32.289,13.004-44.366,25.519c-2.548,2.64-4.917,5.396-7.034,8.192
						c-11.889,15.668-18.173,34.291-18.173,53.857c0,0.333-0.001,0.666,0.015,0.983c0.002,0.06,0.004,0.119,0.005,0.176
						c0.034,3.629,0.301,7.296,0.79,10.902c2.1,15.357,8.271,30.021,17.846,42.408c2.162,2.807,4.567,5.564,7.151,8.203
						c11.989,12.174,27.132,20.793,43.784,24.912c14.706,3.621,30.479,3.629,45.223,0c15.182-3.748,29.252-11.328,40.687-21.92
						c2.663-2.469,5.193-5.094,7.515-7.803c11.174-13.115,18.297-28.957,20.592-45.802c0.489-3.602,0.756-7.271,0.791-10.901
						c0-0.057,0.002-0.116,0.004-0.176c0.017-0.317,0.015-0.65,0.015-0.983c0-19.566-6.284-38.189-18.171-53.855
						c-2.119-2.798-4.486-5.554-7.036-8.195c-12.072-12.51-27.42-21.34-44.384-25.536C225.13,107.938,217.517,107.02,209.873,107.02
						z"/>
				</g>
			</g>
			<path style="fill:#83D0F5;" d="M305.926,210.004c0.512-3.76,0.795-7.574,0.832-11.463h-39.064c0-0.408,0.021-0.797,0.021-1.204
				c0-15.094-1.835-29.28-5.107-42.004c9.436-3.926,17.908-8.871,25.073-14.594c-2.287-3.02-4.766-5.89-7.394-8.611
				c-5.975,4.74-13.045,8.888-20.969,12.259c-6.013-17.224-14.937-30.892-25.677-39.097c-7.6-1.87-15.561-2.87-23.768-2.87
				c-8.206,0-16.168,1-23.786,2.888c-10.722,8.187-19.645,21.854-25.657,39.078c-7.924-3.371-14.995-7.52-20.971-12.259
				c-2.628,2.722-5.105,5.592-7.392,8.611c7.164,5.723,15.637,10.668,25.071,14.594c-3.271,12.724-5.107,26.91-5.107,42.004
				c0,0.407,0.019,0.796,0.019,1.204h-39.063c0.038,3.889,0.321,7.703,0.833,11.463h38.666c0.775,11.224,2.553,21.816,5.219,31.521
				c-9.322,3.445-17.793,7.873-25.127,13.057c2.324,3.02,4.839,5.891,7.507,8.613c6.163-4.26,13.272-7.908,21.1-10.834
				c5.992,16.242,14.634,29.15,24.92,37.022c7.6,1.873,15.562,2.871,23.768,2.871c8.188,0,16.147-0.998,23.75-2.871
				c9.737-7.426,17.979-19.352,23.918-34.356c7.071,3.168,13.426,6.982,18.852,11.317c2.777-2.574,5.407-5.297,7.884-8.186
				c-6.617-5.391-14.389-10.076-23.029-13.891c3.081-10.426,5.161-21.965,6.013-34.263H305.926z M200.25,284.457
				c-11.27-4.836-21.141-17.91-27.777-35.65c8.679-2.262,18.02-3.688,27.777-4.096V284.457z M200.25,233.248
				c-10.967,0.424-21.48,2.055-31.274,4.686c-2.346-8.631-3.99-18.039-4.765-27.929h36.039V233.248z M200.25,198.541h-36.513
				c0-0.408-0.019-0.797-0.019-1.204c0-13.501,1.643-26.41,4.574-38.004c9.928,3.056,20.668,5.057,31.957,5.778V198.541z
				 M200.25,153.647c-10.154-0.704-19.817-2.501-28.704-5.223c6.618-19.039,16.886-33.151,28.704-38.226V153.647z M211.934,108.235
				c14.939,1.351,28.268,17.169,36.267,40.189c-11.061,3.371-23.333,5.335-36.267,5.52V108.235z M211.934,286.42v-41.709
				c12.347,0.52,24.052,2.648,34.582,6.074C238.407,271.326,225.85,285.162,211.934,286.42z M250.186,240.008
				c-11.704-3.854-24.619-6.223-38.252-6.76v-23.244h43.603C254.705,220.691,252.85,230.82,250.186,240.008z M256.009,198.541
				h-44.075v-33.152c14.049-0.185,27.398-2.335,39.52-6.056c2.93,11.594,4.575,24.503,4.575,38.004
				C256.028,197.744,256.009,198.133,256.009,198.541z"/>
		</g>
	</g>
</g>
</svg>
